<?xml version="1.0" encoding="UTF-8"?> <svg xmlns="http://www.w3.org/2000/svg" width="143" height="47" viewBox="0 0 143 47" fill="none"><path fill-rule="evenodd" clip-rule="evenodd" d="M37.264 42.6045C33.4848 45.1294 29.0417 46.4771 24.4966 46.4771C19.9515 46.4771 15.5084 45.1294 11.7292 42.6045C12.3243 41.7385 13.3051 41.7837 14.3106 42.2761L14.6799 42.469C17.712 44.0359 21.0754 44.8536 24.4884 44.8536C27.9014 44.8536 31.2648 44.0359 34.2969 42.469L34.6621 42.2761C35.6881 41.7919 36.669 41.7385 37.264 42.6045Z" fill="#42B0FF"></path><path fill-rule="evenodd" clip-rule="evenodd" d="M24.4966 0.543036C27.9805 0.537097 31.4196 1.32739 34.5514 2.85357H34.5144C34.104 2.93975 34.2928 4.18325 34.9248 4.84809V4.87682C31.7368 3.08947 28.1433 2.15082 24.4884 2.15082C20.8336 2.15082 17.24 3.08947 14.0521 4.87682V4.84809C14.6923 4.18325 14.9016 2.93975 14.4625 2.85357H14.4255C17.5623 1.32495 21.0073 0.534593 24.4966 0.543036Z" fill="#42B0FF"></path><path fill-rule="evenodd" clip-rule="evenodd" d="M32.3187 16.737C29.1094 19.0434 27.4432 21.473 26.8153 23.4552C25.4692 27.6576 28.9781 31.8519 33.3201 31.6877C39.4104 31.4538 42.6648 22.7985 42.9644 17.7794C43.1942 13.9463 42.3652 9.16108 37.0013 4.23633C39.8002 5.84508 47.2612 10.3923 48.989 21.7069C48.2872 19.7657 47.1463 17.6768 45.9521 16.7042C48.6525 20.8451 48.6771 25.3471 47.4295 30.6576C47.1997 28.3225 46.859 25.0024 45.4103 22.7001C46.5882 27.8669 46.7154 32.5044 44.3351 37.0639C44.3967 33.9203 44.5978 30.7643 42.8864 27.7726C44.1381 33.9285 42.8864 39.7151 40.2352 42.3539C42.2872 37.4292 41.5075 34.2609 39.9603 30.9818C40.6333 34.1255 40.5677 36.9285 39.476 39.8751H9.51709C8.42544 36.9285 8.35977 34.1296 9.03282 30.9818C7.48563 34.265 6.71408 37.4251 8.75786 42.3539C6.10259 39.674 4.8714 33.8792 6.10259 27.7315C4.39124 30.7233 4.59234 33.8875 4.65389 37.0229C2.2736 32.4798 2.40082 27.8423 3.57866 22.659C2.12996 24.9613 1.78933 28.2814 1.55951 30.6166C0.328318 25.3184 0.328318 20.8163 3.03693 16.6631C1.84268 17.6358 0.701778 19.7247 0 21.6659C1.74418 10.3923 9.19288 5.83277 11.9918 4.23633C6.6279 9.16108 5.7989 13.9463 6.02872 17.7794C6.23802 21.2473 7.73597 25.8683 10.6539 28.4497C12.435 30.0338 16.3338 31.6467 19.3009 31.2445C20.2675 31.0803 21.1589 30.619 21.851 29.9246C22.5432 29.2303 23.0017 28.3375 23.1628 27.3704C23.3474 26.0161 23.1258 24.317 22.3666 22.2609C21.4719 25.1871 20.1012 27.0215 17.2736 26.9066C20.487 25.4949 19.9083 21.4442 22.067 18.6987C24.3283 15.8218 29.0848 15.6248 32.3187 16.737Z" fill="#42B0FF"></path><path fill-rule="evenodd" clip-rule="evenodd" d="M64.6648 37.852H58.734V38.6152H63.1755V40.8465H58.734V44.5566H55.7448V37.852H54.6848V34.9051H64.6648V37.8626V37.852ZM74.6236 44.5566V41.5991H73.1343C72.9806 41.6143 72.826 41.5805 72.6927 41.5024C72.5594 41.4243 72.4542 41.306 72.3923 41.1645C72.9674 40.9033 73.455 40.482 73.7968 39.9508C74.2059 39.3222 74.3865 38.5721 74.3084 37.8262C74.2302 37.0803 73.898 36.384 73.3675 35.8538C73.0686 35.5463 72.7098 35.3034 72.3132 35.1402C71.9166 34.977 71.4908 34.897 71.062 34.9051H64.3786V37.8626H65.4068V44.5672H68.4119V41.4454L70.6327 43.6768C70.9 43.959 71.2222 44.1835 71.5795 44.3366C71.9368 44.4897 72.3216 44.5682 72.7103 44.5672L74.6236 44.5566ZM71.3376 38.1647C71.3376 38.6576 71.0408 38.9067 70.4578 38.9067H68.4119V37.4227H70.4737C71.0567 37.4227 71.3535 37.6665 71.3535 38.1647H71.3376ZM84.3122 44.5566H75.3656V37.852H74.3056V34.9051H84.3122V37.8626H78.3549V38.6152H82.7963V40.8465H78.3549V41.6044H84.3122V44.5619V44.5566ZM88.0222 44.5566V34.9051H83.9889V37.8626H85.0118V44.5672L88.0222 44.5566ZM97.6843 44.5566H93.5979C92.3443 44.515 91.156 43.9879 90.2839 43.0864C89.4118 42.185 88.9243 40.9798 88.9243 39.7256C88.9243 38.4713 89.4118 37.2661 90.2839 36.3647C91.156 35.4632 92.3443 34.9361 93.5979 34.8945H97.6843V37.852H93.5873C93.3437 37.8466 93.1016 37.8908 92.8756 37.9819C92.6497 38.073 92.4446 38.2091 92.2729 38.382C91.9284 38.737 91.7357 39.2123 91.7357 39.707C91.7357 40.2017 91.9284 40.677 92.2729 41.032C92.4422 41.2051 92.6454 41.3414 92.8697 41.4326C93.094 41.5238 93.3346 41.5678 93.5767 41.562H94.6791V39.3148H97.6683V44.5195L97.6843 44.5566ZM107.346 44.5566V34.9051H104.357V38.6152H101.416V34.9051H97.4033V37.8626H98.4263V44.5672H101.416V40.8571H104.357V44.5672L107.346 44.5566ZM117.008 37.852H113.993V44.5566H111.025V37.852H107.028V34.9051H116.987L117.008 37.852Z" fill="#42B0FF"></path><path fill-rule="evenodd" clip-rule="evenodd" d="M118.264 44.5087H120.999V34.8413H118.264V44.5087ZM129.114 34.8413V39.993L124.847 34.8413H122.595V44.5087H125.276V39.357L129.543 44.5087H131.79V34.8413H129.114ZM138.193 44.6995C138.981 44.734 139.766 44.5855 140.487 44.2655C141.208 43.9454 141.845 43.4627 142.348 42.8551L140.61 41.265C140.343 41.6171 139.998 41.9027 139.603 42.0995C139.208 42.2962 138.772 42.3988 138.331 42.3992C137.598 42.3992 136.896 42.1083 136.378 41.5905C135.86 41.0726 135.569 40.3703 135.569 39.6379C135.569 38.9056 135.86 38.2032 136.378 37.6853C136.896 37.1675 137.598 36.8766 138.331 36.8766C138.772 36.8759 139.207 36.9775 139.603 37.1734C139.998 37.3693 140.343 37.6541 140.61 38.0055L142.348 36.4155C141.842 35.8127 141.204 35.3346 140.483 35.0184C139.763 34.7022 138.979 34.5564 138.193 34.5922C135.129 34.5922 132.893 36.6805 132.893 39.622C132.893 42.5635 135.129 44.6995 138.193 44.6995Z" fill="white"></path><path fill-rule="evenodd" clip-rule="evenodd" d="M84.4817 18.1463C84.4774 21.6864 83.0697 25.0803 80.5669 27.5841C78.0642 30.0878 74.6708 31.4969 71.1308 31.5025C67.5869 31.4927 64.1914 30.0787 61.688 27.5704C59.1846 25.062 57.7774 21.6637 57.7746 18.1198V11.4258H54.7058V2.57471H66.7211V18.1887C66.7132 18.7741 66.8242 19.3549 67.0474 19.896C67.2707 20.4372 67.6014 20.9274 68.0196 21.337C68.4244 21.7512 68.9079 22.0804 69.4417 22.3052C69.9756 22.5299 70.5489 22.6457 71.1281 22.6457C71.7073 22.6457 72.2807 22.5299 72.8145 22.3052C73.3483 22.0804 73.8318 21.7512 74.2366 21.337C74.6548 20.9274 74.9856 20.4372 75.2088 19.896C75.432 19.3549 75.543 18.7741 75.5351 18.1887V2.57471H84.4817V18.1516V18.1463ZM113.415 31.5025V22.6408L100.509 22.5984L113.415 11.4682V2.57471H83.5912V11.4258H99.6187L86.7077 22.6408V31.5025H113.415ZM142.348 21.708C142.347 22.9949 142.093 24.2691 141.6 25.4578C141.107 26.6465 140.384 27.7264 139.474 28.636C138.563 29.5455 137.483 30.2667 136.293 30.7586C135.104 31.2504 133.83 31.5032 132.543 31.5025H115.641V11.4258H112.572V2.57471H132.569C133.854 2.57471 135.127 2.82799 136.314 3.32007C137.501 3.81216 138.579 4.5334 139.488 5.44255C140.396 6.3517 141.116 7.43094 141.607 8.61857C142.097 9.80619 142.349 11.0789 142.348 12.3639C142.348 13.5229 141.8 15.0811 140.705 17.0386C141.8 18.9996 142.348 20.5579 142.348 21.7133V21.708ZM133.401 12.3586C133.401 10.8746 132.518 10.1326 130.751 10.1326H124.593V14.5847H130.767C132.534 14.5847 133.417 13.8427 133.417 12.3586H133.401ZM133.401 21.708C133.401 20.224 132.518 19.4819 130.751 19.4819H124.593V23.934H130.767C132.523 23.934 133.401 23.192 133.401 21.708Z" fill="white"></path></svg> 